<mxfile host="Drawpyo" modified="2024-11-07T21:04:41" agent="Python 3.12, Drawpyo 0.01" version="21.6.5" type="device">
  <diagram name="Page-1" id="2089998134944">
    <mxGraphModel dx="2037" dy="830" grid="1" gridSize="10" guides="1" toolTips="1" connect="1" arrows="1" fold="1" page="1" pageScale="1" pageWidth="1100" pageHeight="850" math="0" shadow="0">
      <root>
        <mxCell id="0" />
        <mxCell id="1" parent="0" />
        <mxCell id="2089998135136" value="host" style="whiteSpace=wrap;rounded=0;dashed=0;shape=image;image=data:image/svg+xml,PD94bWwgdmVyc2lvbj0iMS4wIiBlbmNvZGluZz0idXRmLTgiPz48IS0tIFVwbG9hZGVkIHRvOiBTVkcgUmVwbywgd3d3LnN2Z3JlcG8uY29tLCBHZW5lcmF0b3I6IFNWRyBSZXBvIE1peGVyIFRvb2xzIC0tPgo8c3ZnIHdpZHRoPSI4MDBweCIgaGVpZ2h0PSI4MDBweCIgdmlld0JveD0iLTAuNSAwIDI1NyAyNTciIHhtbG5zPSJodHRwOi8vd3d3LnczLm9yZy8yMDAwL3N2ZyIgcHJlc2VydmVBc3BlY3RSYXRpbz0ieE1pZFlNaWQiPjxwYXRoIGQ9Ik0wIDM2LjM1N0wxMDQuNjIgMjIuMTFsLjA0NSAxMDAuOTE0LTEwNC41Ny41OTVMMCAzNi4zNTh6bTEwNC41NyA5OC4yOTNsLjA4IDEwMS4wMDJMLjA4MSAyMjEuMjc1bC0uMDA2LTg3LjMwMiAxMDQuNDk0LjY3N3ptMTIuNjgyLTExNC40MDVMMjU1Ljk2OCAwdjEyMS43NGwtMTM4LjcxNiAxLjFWMjAuMjQ2ek0yNTYgMTM1LjZsLS4wMzMgMTIxLjE5MS0xMzguNzE2LTE5LjU3OC0uMTk0LTEwMS44NEwyNTYgMTM1LjZ6IiBmaWxsPSIjMDBBREVGIi8+PC9zdmc+;fontFamily=Helvetica;fontSize=12;fontColor=#000000;labelPosition=center;spacingBottom=-35;align=center;verticalAlign=bottom;horizontal=1;" vertex="1" parent="2089998134656">
  <mxGeometry x="50" y="50" width="100" height="50" as="geometry" />
</mxCell>
        <mxCell id="2089998125920" value="10.0.10.1" style="whiteSpace=wrap;rounded=0;dashed=0;shape=image;image=data:image/svg+xml,PD94bWwgdmVyc2lvbj0iMS4wIiBlbmNvZGluZz0idXRmLTgiPz48IS0tIFVwbG9hZGVkIHRvOiBTVkcgUmVwbywgd3d3LnN2Z3JlcG8uY29tLCBHZW5lcmF0b3I6IFNWRyBSZXBvIE1peGVyIFRvb2xzIC0tPgo8c3ZnIHdpZHRoPSI4MDBweCIgaGVpZ2h0PSI4MDBweCIgdmlld0JveD0iLTAuNSAwIDI1NyAyNTciIHhtbG5zPSJodHRwOi8vd3d3LnczLm9yZy8yMDAwL3N2ZyIgcHJlc2VydmVBc3BlY3RSYXRpbz0ieE1pZFlNaWQiPjxwYXRoIGQ9Ik0wIDM2LjM1N0wxMDQuNjIgMjIuMTFsLjA0NSAxMDAuOTE0LTEwNC41Ny41OTVMMCAzNi4zNTh6bTEwNC41NyA5OC4yOTNsLjA4IDEwMS4wMDJMLjA4MSAyMjEuMjc1bC0uMDA2LTg3LjMwMiAxMDQuNDk0LjY3N3ptMTIuNjgyLTExNC40MDVMMjU1Ljk2OCAwdjEyMS43NGwtMTM4LjcxNiAxLjFWMjAuMjQ2ek0yNTYgMTM1LjZsLS4wMzMgMTIxLjE5MS0xMzguNzE2LTE5LjU3OC0uMTk0LTEwMS44NEwyNTYgMTM1LjZ6IiBmaWxsPSIjMDBBREVGIi8+PC9zdmc+;fontFamily=Helvetica;fontSize=12;fontColor=#000000;labelPosition=center;spacingBottom=-35;align=center;verticalAlign=bottom;horizontal=1;" vertex="1" parent="2089998134656">
  <mxGeometry x="50" y="150" width="100" height="50" as="geometry" />
</mxCell>
        <mxCell id="2089998135280" value="10.0.10.1" style="whiteSpace=wrap;rounded=0;dashed=0;shape=image;image=data:image/svg+xml,PD94bWwgdmVyc2lvbj0iMS4wIiBlbmNvZGluZz0idXRmLTgiPz48IS0tIFVwbG9hZGVkIHRvOiBTVkcgUmVwbywgd3d3LnN2Z3JlcG8uY29tLCBHZW5lcmF0b3I6IFNWRyBSZXBvIE1peGVyIFRvb2xzIC0tPgo8c3ZnIHdpZHRoPSI4MDBweCIgaGVpZ2h0PSI4MDBweCIgdmlld0JveD0iLTAuNSAwIDI1NyAyNTciIHhtbG5zPSJodHRwOi8vd3d3LnczLm9yZy8yMDAwL3N2ZyIgcHJlc2VydmVBc3BlY3RSYXRpbz0ieE1pZFlNaWQiPjxwYXRoIGQ9Ik0wIDM2LjM1N0wxMDQuNjIgMjIuMTFsLjA0NSAxMDAuOTE0LTEwNC41Ny41OTVMMCAzNi4zNTh6bTEwNC41NyA5OC4yOTNsLjA4IDEwMS4wMDJMLjA4MSAyMjEuMjc1bC0uMDA2LTg3LjMwMiAxMDQuNDk0LjY3N3ptMTIuNjgyLTExNC40MDVMMjU1Ljk2OCAwdjEyMS43NGwtMTM4LjcxNiAxLjFWMjAuMjQ2ek0yNTYgMTM1LjZsLS4wMzMgMTIxLjE5MS0xMzguNzE2LTE5LjU3OC0uMTk0LTEwMS44NEwyNTYgMTM1LjZ6IiBmaWxsPSIjMDBBREVGIi8+PC9zdmc+;fontFamily=Helvetica;fontSize=12;fontColor=#000000;labelPosition=center;spacingBottom=-35;align=center;verticalAlign=bottom;horizontal=1;" vertex="1" parent="2089998134656">
  <mxGeometry x="50" y="250" width="100" height="50" as="geometry" />
</mxCell>
        <mxCell id="2089998135376" value="10.0.10.1" style="whiteSpace=wrap;rounded=0;dashed=0;shape=image;image=data:image/svg+xml,PD94bWwgdmVyc2lvbj0iMS4wIiBlbmNvZGluZz0idXRmLTgiPz48IS0tIFVwbG9hZGVkIHRvOiBTVkcgUmVwbywgd3d3LnN2Z3JlcG8uY29tLCBHZW5lcmF0b3I6IFNWRyBSZXBvIE1peGVyIFRvb2xzIC0tPgo8c3ZnIHdpZHRoPSI4MDBweCIgaGVpZ2h0PSI4MDBweCIgdmlld0JveD0iLTAuNSAwIDI1NyAyNTciIHhtbG5zPSJodHRwOi8vd3d3LnczLm9yZy8yMDAwL3N2ZyIgcHJlc2VydmVBc3BlY3RSYXRpbz0ieE1pZFlNaWQiPjxwYXRoIGQ9Ik0wIDM2LjM1N0wxMDQuNjIgMjIuMTFsLjA0NSAxMDAuOTE0LTEwNC41Ny41OTVMMCAzNi4zNTh6bTEwNC41NyA5OC4yOTNsLjA4IDEwMS4wMDJMLjA4MSAyMjEuMjc1bC0uMDA2LTg3LjMwMiAxMDQuNDk0LjY3N3ptMTIuNjgyLTExNC40MDVMMjU1Ljk2OCAwdjEyMS43NGwtMTM4LjcxNiAxLjFWMjAuMjQ2ek0yNTYgMTM1LjZsLS4wMzMgMTIxLjE5MS0xMzguNzE2LTE5LjU3OC0uMTk0LTEwMS44NEwyNTYgMTM1LjZ6IiBmaWxsPSIjMDBBREVGIi8+PC9zdmc+;fontFamily=Helvetica;fontSize=12;fontColor=#000000;labelPosition=center;spacingBottom=-35;align=center;verticalAlign=bottom;horizontal=1;" vertex="1" parent="2089998134656">
  <mxGeometry x="50" y="350" width="100" height="50" as="geometry" />
</mxCell>
        <mxCell id="2089998135472" value="10.0.10.123" style="whiteSpace=wrap;rounded=0;dashed=0;shape=image;image=data:image/svg+xml,PD94bWwgdmVyc2lvbj0iMS4wIiBlbmNvZGluZz0idXRmLTgiPz48IS0tIFVwbG9hZGVkIHRvOiBTVkcgUmVwbywgd3d3LnN2Z3JlcG8uY29tLCBHZW5lcmF0b3I6IFNWRyBSZXBvIE1peGVyIFRvb2xzIC0tPgo8c3ZnIHdpZHRoPSI4MDBweCIgaGVpZ2h0PSI4MDBweCIgdmlld0JveD0iLTAuNSAwIDI1NyAyNTciIHhtbG5zPSJodHRwOi8vd3d3LnczLm9yZy8yMDAwL3N2ZyIgcHJlc2VydmVBc3BlY3RSYXRpbz0ieE1pZFlNaWQiPjxwYXRoIGQ9Ik0wIDM2LjM1N0wxMDQuNjIgMjIuMTFsLjA0NSAxMDAuOTE0LTEwNC41Ny41OTVMMCAzNi4zNTh6bTEwNC41NyA5OC4yOTNsLjA4IDEwMS4wMDJMLjA4MSAyMjEuMjc1bC0uMDA2LTg3LjMwMiAxMDQuNDk0LjY3N3ptMTIuNjgyLTExNC40MDVMMjU1Ljk2OCAwdjEyMS43NGwtMTM4LjcxNiAxLjFWMjAuMjQ2ek0yNTYgMTM1LjZsLS4wMzMgMTIxLjE5MS0xMzguNzE2LTE5LjU3OC0uMTk0LTEwMS44NEwyNTYgMTM1LjZ6IiBmaWxsPSIjMDBBREVGIi8+PC9zdmc+;fontFamily=Helvetica;fontSize=12;fontColor=#000000;labelPosition=center;spacingBottom=-35;align=center;verticalAlign=bottom;horizontal=1;" vertex="1" parent="2089998134656">
  <mxGeometry x="150" y="50" width="100" height="50" as="geometry" />
</mxCell>
        <mxCell id="2089998135568" value="10.0.10.123" style="whiteSpace=wrap;rounded=0;dashed=0;shape=image;image=data:image/svg+xml,PD94bWwgdmVyc2lvbj0iMS4wIiBlbmNvZGluZz0idXRmLTgiPz48IS0tIFVwbG9hZGVkIHRvOiBTVkcgUmVwbywgd3d3LnN2Z3JlcG8uY29tLCBHZW5lcmF0b3I6IFNWRyBSZXBvIE1peGVyIFRvb2xzIC0tPgo8c3ZnIHdpZHRoPSI4MDBweCIgaGVpZ2h0PSI4MDBweCIgdmlld0JveD0iLTAuNSAwIDI1NyAyNTciIHhtbG5zPSJodHRwOi8vd3d3LnczLm9yZy8yMDAwL3N2ZyIgcHJlc2VydmVBc3BlY3RSYXRpbz0ieE1pZFlNaWQiPjxwYXRoIGQ9Ik0wIDM2LjM1N0wxMDQuNjIgMjIuMTFsLjA0NSAxMDAuOTE0LTEwNC41Ny41OTVMMCAzNi4zNTh6bTEwNC41NyA5OC4yOTNsLjA4IDEwMS4wMDJMLjA4MSAyMjEuMjc1bC0uMDA2LTg3LjMwMiAxMDQuNDk0LjY3N3ptMTIuNjgyLTExNC40MDVMMjU1Ljk2OCAwdjEyMS43NGwtMTM4LjcxNiAxLjFWMjAuMjQ2ek0yNTYgMTM1LjZsLS4wMzMgMTIxLjE5MS0xMzguNzE2LTE5LjU3OC0uMTk0LTEwMS44NEwyNTYgMTM1LjZ6IiBmaWxsPSIjMDBBREVGIi8+PC9zdmc+;fontFamily=Helvetica;fontSize=12;fontColor=#000000;labelPosition=center;spacingBottom=-35;align=center;verticalAlign=bottom;horizontal=1;" vertex="1" parent="2089998134656">
  <mxGeometry x="150" y="150" width="100" height="50" as="geometry" />
</mxCell>
        <mxCell id="2089998135664" value="10.0.10.124" style="whiteSpace=wrap;rounded=0;dashed=0;shape=image;image=data:image/svg+xml,PD94bWwgdmVyc2lvbj0iMS4wIiBlbmNvZGluZz0idXRmLTgiPz48IS0tIFVwbG9hZGVkIHRvOiBTVkcgUmVwbywgd3d3LnN2Z3JlcG8uY29tLCBHZW5lcmF0b3I6IFNWRyBSZXBvIE1peGVyIFRvb2xzIC0tPgo8c3ZnIHdpZHRoPSI4MDBweCIgaGVpZ2h0PSI4MDBweCIgdmlld0JveD0iLTAuNSAwIDI1NyAyNTciIHhtbG5zPSJodHRwOi8vd3d3LnczLm9yZy8yMDAwL3N2ZyIgcHJlc2VydmVBc3BlY3RSYXRpbz0ieE1pZFlNaWQiPjxwYXRoIGQ9Ik0wIDM2LjM1N0wxMDQuNjIgMjIuMTFsLjA0NSAxMDAuOTE0LTEwNC41Ny41OTVMMCAzNi4zNTh6bTEwNC41NyA5OC4yOTNsLjA4IDEwMS4wMDJMLjA4MSAyMjEuMjc1bC0uMDA2LTg3LjMwMiAxMDQuNDk0LjY3N3ptMTIuNjgyLTExNC40MDVMMjU1Ljk2OCAwdjEyMS43NGwtMTM4LjcxNiAxLjFWMjAuMjQ2ek0yNTYgMTM1LjZsLS4wMzMgMTIxLjE5MS0xMzguNzE2LTE5LjU3OC0uMTk0LTEwMS44NEwyNTYgMTM1LjZ6IiBmaWxsPSIjMDBBREVGIi8+PC9zdmc+;fontFamily=Helvetica;fontSize=12;fontColor=#000000;labelPosition=center;spacingBottom=-35;align=center;verticalAlign=bottom;horizontal=1;" vertex="1" parent="2089998134656">
  <mxGeometry x="150" y="250" width="100" height="50" as="geometry" />
</mxCell>
        <mxCell id="2089998135760" value="10.0.10.125" style="whiteSpace=wrap;rounded=0;dashed=0;shape=image;image=data:image/svg+xml,PD94bWwgdmVyc2lvbj0iMS4wIiBlbmNvZGluZz0idXRmLTgiPz48IS0tIFVwbG9hZGVkIHRvOiBTVkcgUmVwbywgd3d3LnN2Z3JlcG8uY29tLCBHZW5lcmF0b3I6IFNWRyBSZXBvIE1peGVyIFRvb2xzIC0tPgo8c3ZnIHdpZHRoPSI4MDBweCIgaGVpZ2h0PSI4MDBweCIgdmlld0JveD0iLTAuNSAwIDI1NyAyNTciIHhtbG5zPSJodHRwOi8vd3d3LnczLm9yZy8yMDAwL3N2ZyIgcHJlc2VydmVBc3BlY3RSYXRpbz0ieE1pZFlNaWQiPjxwYXRoIGQ9Ik0wIDM2LjM1N0wxMDQuNjIgMjIuMTFsLjA0NSAxMDAuOTE0LTEwNC41Ny41OTVMMCAzNi4zNTh6bTEwNC41NyA5OC4yOTNsLjA4IDEwMS4wMDJMLjA4MSAyMjEuMjc1bC0uMDA2LTg3LjMwMiAxMDQuNDk0LjY3N3ptMTIuNjgyLTExNC40MDVMMjU1Ljk2OCAwdjEyMS43NGwtMTM4LjcxNiAxLjFWMjAuMjQ2ek0yNTYgMTM1LjZsLS4wMzMgMTIxLjE5MS0xMzguNzE2LTE5LjU3OC0uMTk0LTEwMS44NEwyNTYgMTM1LjZ6IiBmaWxsPSIjMDBBREVGIi8+PC9zdmc+;fontFamily=Helvetica;fontSize=12;fontColor=#000000;labelPosition=center;spacingBottom=-35;align=center;verticalAlign=bottom;horizontal=1;" vertex="1" parent="2089998134656">
  <mxGeometry x="150" y="350" width="100" height="50" as="geometry" />
</mxCell>
        <mxCell id="2089998135856" value="10.0.10.125" style="whiteSpace=wrap;rounded=0;dashed=0;shape=image;image=data:image/svg+xml,PD94bWwgdmVyc2lvbj0iMS4wIiBlbmNvZGluZz0idXRmLTgiPz48IS0tIFVwbG9hZGVkIHRvOiBTVkcgUmVwbywgd3d3LnN2Z3JlcG8uY29tLCBHZW5lcmF0b3I6IFNWRyBSZXBvIE1peGVyIFRvb2xzIC0tPgo8c3ZnIHdpZHRoPSI4MDBweCIgaGVpZ2h0PSI4MDBweCIgdmlld0JveD0iLTAuNSAwIDI1NyAyNTciIHhtbG5zPSJodHRwOi8vd3d3LnczLm9yZy8yMDAwL3N2ZyIgcHJlc2VydmVBc3BlY3RSYXRpbz0ieE1pZFlNaWQiPjxwYXRoIGQ9Ik0wIDM2LjM1N0wxMDQuNjIgMjIuMTFsLjA0NSAxMDAuOTE0LTEwNC41Ny41OTVMMCAzNi4zNTh6bTEwNC41NyA5OC4yOTNsLjA4IDEwMS4wMDJMLjA4MSAyMjEuMjc1bC0uMDA2LTg3LjMwMiAxMDQuNDk0LjY3N3ptMTIuNjgyLTExNC40MDVMMjU1Ljk2OCAwdjEyMS43NGwtMTM4LjcxNiAxLjFWMjAuMjQ2ek0yNTYgMTM1LjZsLS4wMzMgMTIxLjE5MS0xMzguNzE2LTE5LjU3OC0uMTk0LTEwMS44NEwyNTYgMTM1LjZ6IiBmaWxsPSIjMDBBREVGIi8+PC9zdmc+;fontFamily=Helvetica;fontSize=12;fontColor=#000000;labelPosition=center;spacingBottom=-35;align=center;verticalAlign=bottom;horizontal=1;" vertex="1" parent="2089998134656">
  <mxGeometry x="250" y="50" width="100" height="50" as="geometry" />
</mxCell>
        <mxCell id="2089998135952" value="10.0.10.127" style="whiteSpace=wrap;rounded=0;dashed=0;shape=image;image=data:image/svg+xml,PD94bWwgdmVyc2lvbj0iMS4wIiBlbmNvZGluZz0idXRmLTgiPz48IS0tIFVwbG9hZGVkIHRvOiBTVkcgUmVwbywgd3d3LnN2Z3JlcG8uY29tLCBHZW5lcmF0b3I6IFNWRyBSZXBvIE1peGVyIFRvb2xzIC0tPgo8c3ZnIHdpZHRoPSI4MDBweCIgaGVpZ2h0PSI4MDBweCIgdmlld0JveD0iLTAuNSAwIDI1NyAyNTciIHhtbG5zPSJodHRwOi8vd3d3LnczLm9yZy8yMDAwL3N2ZyIgcHJlc2VydmVBc3BlY3RSYXRpbz0ieE1pZFlNaWQiPjxwYXRoIGQ9Ik0wIDM2LjM1N0wxMDQuNjIgMjIuMTFsLjA0NSAxMDAuOTE0LTEwNC41Ny41OTVMMCAzNi4zNTh6bTEwNC41NyA5OC4yOTNsLjA4IDEwMS4wMDJMLjA4MSAyMjEuMjc1bC0uMDA2LTg3LjMwMiAxMDQuNDk0LjY3N3ptMTIuNjgyLTExNC40MDVMMjU1Ljk2OCAwdjEyMS43NGwtMTM4LjcxNiAxLjFWMjAuMjQ2ek0yNTYgMTM1LjZsLS4wMzMgMTIxLjE5MS0xMzguNzE2LTE5LjU3OC0uMTk0LTEwMS44NEwyNTYgMTM1LjZ6IiBmaWxsPSIjMDBBREVGIi8+PC9zdmc+;fontFamily=Helvetica;fontSize=12;fontColor=#000000;labelPosition=center;spacingBottom=-35;align=center;verticalAlign=bottom;horizontal=1;" vertex="1" parent="2089998134656">
  <mxGeometry x="250" y="150" width="100" height="50" as="geometry" />
</mxCell>
        <mxCell id="2089998136048" value="10.0.10.128" style="whiteSpace=wrap;rounded=0;dashed=0;shape=image;image=data:image/svg+xml,PD94bWwgdmVyc2lvbj0iMS4wIiBlbmNvZGluZz0idXRmLTgiPz48IS0tIFVwbG9hZGVkIHRvOiBTVkcgUmVwbywgd3d3LnN2Z3JlcG8uY29tLCBHZW5lcmF0b3I6IFNWRyBSZXBvIE1peGVyIFRvb2xzIC0tPgo8c3ZnIHdpZHRoPSI4MDBweCIgaGVpZ2h0PSI4MDBweCIgdmlld0JveD0iLTAuNSAwIDI1NyAyNTciIHhtbG5zPSJodHRwOi8vd3d3LnczLm9yZy8yMDAwL3N2ZyIgcHJlc2VydmVBc3BlY3RSYXRpbz0ieE1pZFlNaWQiPjxwYXRoIGQ9Ik0wIDM2LjM1N0wxMDQuNjIgMjIuMTFsLjA0NSAxMDAuOTE0LTEwNC41Ny41OTVMMCAzNi4zNTh6bTEwNC41NyA5OC4yOTNsLjA4IDEwMS4wMDJMLjA4MSAyMjEuMjc1bC0uMDA2LTg3LjMwMiAxMDQuNDk0LjY3N3ptMTIuNjgyLTExNC40MDVMMjU1Ljk2OCAwdjEyMS43NGwtMTM4LjcxNiAxLjFWMjAuMjQ2ek0yNTYgMTM1LjZsLS4wMzMgMTIxLjE5MS0xMzguNzE2LTE5LjU3OC0uMTk0LTEwMS44NEwyNTYgMTM1LjZ6IiBmaWxsPSIjMDBBREVGIi8+PC9zdmc+;fontFamily=Helvetica;fontSize=12;fontColor=#000000;labelPosition=center;spacingBottom=-35;align=center;verticalAlign=bottom;horizontal=1;" vertex="1" parent="2089998134656">
  <mxGeometry x="250" y="250" width="100" height="50" as="geometry" />
</mxCell>
        <mxCell id="2089998136144" value="10.0.10.131" style="whiteSpace=wrap;rounded=0;dashed=0;shape=image;image=data:image/svg+xml,PD94bWwgdmVyc2lvbj0iMS4wIiBlbmNvZGluZz0idXRmLTgiPz48IS0tIFVwbG9hZGVkIHRvOiBTVkcgUmVwbywgd3d3LnN2Z3JlcG8uY29tLCBHZW5lcmF0b3I6IFNWRyBSZXBvIE1peGVyIFRvb2xzIC0tPgo8c3ZnIHdpZHRoPSI4MDBweCIgaGVpZ2h0PSI4MDBweCIgdmlld0JveD0iLTAuNSAwIDI1NyAyNTciIHhtbG5zPSJodHRwOi8vd3d3LnczLm9yZy8yMDAwL3N2ZyIgcHJlc2VydmVBc3BlY3RSYXRpbz0ieE1pZFlNaWQiPjxwYXRoIGQ9Ik0wIDM2LjM1N0wxMDQuNjIgMjIuMTFsLjA0NSAxMDAuOTE0LTEwNC41Ny41OTVMMCAzNi4zNTh6bTEwNC41NyA5OC4yOTNsLjA4IDEwMS4wMDJMLjA4MSAyMjEuMjc1bC0uMDA2LTg3LjMwMiAxMDQuNDk0LjY3N3ptMTIuNjgyLTExNC40MDVMMjU1Ljk2OCAwdjEyMS43NGwtMTM4LjcxNiAxLjFWMjAuMjQ2ek0yNTYgMTM1LjZsLS4wMzMgMTIxLjE5MS0xMzguNzE2LTE5LjU3OC0uMTk0LTEwMS44NEwyNTYgMTM1LjZ6IiBmaWxsPSIjMDBBREVGIi8+PC9zdmc+;fontFamily=Helvetica;fontSize=12;fontColor=#000000;labelPosition=center;spacingBottom=-35;align=center;verticalAlign=bottom;horizontal=1;" vertex="1" parent="2089998134656">
  <mxGeometry x="250" y="350" width="100" height="50" as="geometry" />
</mxCell>
        <mxCell id="2089998136240" value="10.0.10.133" style="whiteSpace=wrap;rounded=0;dashed=0;shape=image;image=data:image/svg+xml,PD94bWwgdmVyc2lvbj0iMS4wIiBlbmNvZGluZz0idXRmLTgiPz48IS0tIFVwbG9hZGVkIHRvOiBTVkcgUmVwbywgd3d3LnN2Z3JlcG8uY29tLCBHZW5lcmF0b3I6IFNWRyBSZXBvIE1peGVyIFRvb2xzIC0tPgo8c3ZnIHdpZHRoPSI4MDBweCIgaGVpZ2h0PSI4MDBweCIgdmlld0JveD0iLTAuNSAwIDI1NyAyNTciIHhtbG5zPSJodHRwOi8vd3d3LnczLm9yZy8yMDAwL3N2ZyIgcHJlc2VydmVBc3BlY3RSYXRpbz0ieE1pZFlNaWQiPjxwYXRoIGQ9Ik0wIDM2LjM1N0wxMDQuNjIgMjIuMTFsLjA0NSAxMDAuOTE0LTEwNC41Ny41OTVMMCAzNi4zNTh6bTEwNC41NyA5OC4yOTNsLjA4IDEwMS4wMDJMLjA4MSAyMjEuMjc1bC0uMDA2LTg3LjMwMiAxMDQuNDk0LjY3N3ptMTIuNjgyLTExNC40MDVMMjU1Ljk2OCAwdjEyMS43NGwtMTM4LjcxNiAxLjFWMjAuMjQ2ek0yNTYgMTM1LjZsLS4wMzMgMTIxLjE5MS0xMzguNzE2LTE5LjU3OC0uMTk0LTEwMS44NEwyNTYgMTM1LjZ6IiBmaWxsPSIjMDBBREVGIi8+PC9zdmc+;fontFamily=Helvetica;fontSize=12;fontColor=#000000;labelPosition=center;spacingBottom=-35;align=center;verticalAlign=bottom;horizontal=1;" vertex="1" parent="2089998134656">
  <mxGeometry x="350" y="50" width="100" height="50" as="geometry" />
</mxCell>
        <mxCell id="2089998136336" value="10.0.10.134" style="whiteSpace=wrap;rounded=0;dashed=0;shape=image;image=data:image/svg+xml,PD94bWwgdmVyc2lvbj0iMS4wIiBlbmNvZGluZz0idXRmLTgiPz48IS0tIFVwbG9hZGVkIHRvOiBTVkcgUmVwbywgd3d3LnN2Z3JlcG8uY29tLCBHZW5lcmF0b3I6IFNWRyBSZXBvIE1peGVyIFRvb2xzIC0tPgo8c3ZnIHdpZHRoPSI4MDBweCIgaGVpZ2h0PSI4MDBweCIgdmlld0JveD0iLTAuNSAwIDI1NyAyNTciIHhtbG5zPSJodHRwOi8vd3d3LnczLm9yZy8yMDAwL3N2ZyIgcHJlc2VydmVBc3BlY3RSYXRpbz0ieE1pZFlNaWQiPjxwYXRoIGQ9Ik0wIDM2LjM1N0wxMDQuNjIgMjIuMTFsLjA0NSAxMDAuOTE0LTEwNC41Ny41OTVMMCAzNi4zNTh6bTEwNC41NyA5OC4yOTNsLjA4IDEwMS4wMDJMLjA4MSAyMjEuMjc1bC0uMDA2LTg3LjMwMiAxMDQuNDk0LjY3N3ptMTIuNjgyLTExNC40MDVMMjU1Ljk2OCAwdjEyMS43NGwtMTM4LjcxNiAxLjFWMjAuMjQ2ek0yNTYgMTM1LjZsLS4wMzMgMTIxLjE5MS0xMzguNzE2LTE5LjU3OC0uMTk0LTEwMS44NEwyNTYgMTM1LjZ6IiBmaWxsPSIjMDBBREVGIi8+PC9zdmc+;fontFamily=Helvetica;fontSize=12;fontColor=#000000;labelPosition=center;spacingBottom=-35;align=center;verticalAlign=bottom;horizontal=1;" vertex="1" parent="2089998134656">
  <mxGeometry x="350" y="150" width="100" height="50" as="geometry" />
</mxCell>
        <mxCell id="2089998136432" value="10.0.10.134" style="whiteSpace=wrap;rounded=0;dashed=0;shape=image;image=data:image/svg+xml,PD94bWwgdmVyc2lvbj0iMS4wIiBlbmNvZGluZz0idXRmLTgiPz48IS0tIFVwbG9hZGVkIHRvOiBTVkcgUmVwbywgd3d3LnN2Z3JlcG8uY29tLCBHZW5lcmF0b3I6IFNWRyBSZXBvIE1peGVyIFRvb2xzIC0tPgo8c3ZnIHdpZHRoPSI4MDBweCIgaGVpZ2h0PSI4MDBweCIgdmlld0JveD0iLTAuNSAwIDI1NyAyNTciIHhtbG5zPSJodHRwOi8vd3d3LnczLm9yZy8yMDAwL3N2ZyIgcHJlc2VydmVBc3BlY3RSYXRpbz0ieE1pZFlNaWQiPjxwYXRoIGQ9Ik0wIDM2LjM1N0wxMDQuNjIgMjIuMTFsLjA0NSAxMDAuOTE0LTEwNC41Ny41OTVMMCAzNi4zNTh6bTEwNC41NyA5OC4yOTNsLjA4IDEwMS4wMDJMLjA4MSAyMjEuMjc1bC0uMDA2LTg3LjMwMiAxMDQuNDk0LjY3N3ptMTIuNjgyLTExNC40MDVMMjU1Ljk2OCAwdjEyMS43NGwtMTM4LjcxNiAxLjFWMjAuMjQ2ek0yNTYgMTM1LjZsLS4wMzMgMTIxLjE5MS0xMzguNzE2LTE5LjU3OC0uMTk0LTEwMS44NEwyNTYgMTM1LjZ6IiBmaWxsPSIjMDBBREVGIi8+PC9zdmc+;fontFamily=Helvetica;fontSize=12;fontColor=#000000;labelPosition=center;spacingBottom=-35;align=center;verticalAlign=bottom;horizontal=1;" vertex="1" parent="2089998134656">
  <mxGeometry x="350" y="250" width="100" height="50" as="geometry" />
</mxCell>
        <mxCell id="2089998136528" value="10.0.10.135" style="whiteSpace=wrap;rounded=0;dashed=0;shape=image;image=data:image/svg+xml,PD94bWwgdmVyc2lvbj0iMS4wIiBlbmNvZGluZz0idXRmLTgiPz48IS0tIFVwbG9hZGVkIHRvOiBTVkcgUmVwbywgd3d3LnN2Z3JlcG8uY29tLCBHZW5lcmF0b3I6IFNWRyBSZXBvIE1peGVyIFRvb2xzIC0tPgo8c3ZnIHdpZHRoPSI4MDBweCIgaGVpZ2h0PSI4MDBweCIgdmlld0JveD0iLTAuNSAwIDI1NyAyNTciIHhtbG5zPSJodHRwOi8vd3d3LnczLm9yZy8yMDAwL3N2ZyIgcHJlc2VydmVBc3BlY3RSYXRpbz0ieE1pZFlNaWQiPjxwYXRoIGQ9Ik0wIDM2LjM1N0wxMDQuNjIgMjIuMTFsLjA0NSAxMDAuOTE0LTEwNC41Ny41OTVMMCAzNi4zNTh6bTEwNC41NyA5OC4yOTNsLjA4IDEwMS4wMDJMLjA4MSAyMjEuMjc1bC0uMDA2LTg3LjMwMiAxMDQuNDk0LjY3N3ptMTIuNjgyLTExNC40MDVMMjU1Ljk2OCAwdjEyMS43NGwtMTM4LjcxNiAxLjFWMjAuMjQ2ek0yNTYgMTM1LjZsLS4wMzMgMTIxLjE5MS0xMzguNzE2LTE5LjU3OC0uMTk0LTEwMS44NEwyNTYgMTM1LjZ6IiBmaWxsPSIjMDBBREVGIi8+PC9zdmc+;fontFamily=Helvetica;fontSize=12;fontColor=#000000;labelPosition=center;spacingBottom=-35;align=center;verticalAlign=bottom;horizontal=1;" vertex="1" parent="2089998134656">
  <mxGeometry x="350" y="350" width="100" height="50" as="geometry" />
</mxCell>
        <mxCell id="2089998136624" value="10.0.10.14" style="whiteSpace=wrap;rounded=0;dashed=0;shape=image;image=data:image/svg+xml,PD94bWwgdmVyc2lvbj0iMS4wIiBlbmNvZGluZz0idXRmLTgiPz48IS0tIFVwbG9hZGVkIHRvOiBTVkcgUmVwbywgd3d3LnN2Z3JlcG8uY29tLCBHZW5lcmF0b3I6IFNWRyBSZXBvIE1peGVyIFRvb2xzIC0tPgo8c3ZnIHdpZHRoPSI4MDBweCIgaGVpZ2h0PSI4MDBweCIgdmlld0JveD0iLTAuNSAwIDI1NyAyNTciIHhtbG5zPSJodHRwOi8vd3d3LnczLm9yZy8yMDAwL3N2ZyIgcHJlc2VydmVBc3BlY3RSYXRpbz0ieE1pZFlNaWQiPjxwYXRoIGQ9Ik0wIDM2LjM1N0wxMDQuNjIgMjIuMTFsLjA0NSAxMDAuOTE0LTEwNC41Ny41OTVMMCAzNi4zNTh6bTEwNC41NyA5OC4yOTNsLjA4IDEwMS4wMDJMLjA4MSAyMjEuMjc1bC0uMDA2LTg3LjMwMiAxMDQuNDk0LjY3N3ptMTIuNjgyLTExNC40MDVMMjU1Ljk2OCAwdjEyMS43NGwtMTM4LjcxNiAxLjFWMjAuMjQ2ek0yNTYgMTM1LjZsLS4wMzMgMTIxLjE5MS0xMzguNzE2LTE5LjU3OC0uMTk0LTEwMS44NEwyNTYgMTM1LjZ6IiBmaWxsPSIjMDBBREVGIi8+PC9zdmc+;fontFamily=Helvetica;fontSize=12;fontColor=#000000;labelPosition=center;spacingBottom=-35;align=center;verticalAlign=bottom;horizontal=1;" vertex="1" parent="2089998134656">
  <mxGeometry x="450" y="50" width="100" height="50" as="geometry" />
</mxCell>
        <mxCell id="2089998136720" value="10.0.10.15" style="whiteSpace=wrap;rounded=0;dashed=0;shape=image;image=data:image/svg+xml,PD94bWwgdmVyc2lvbj0iMS4wIiBlbmNvZGluZz0idXRmLTgiPz48IS0tIFVwbG9hZGVkIHRvOiBTVkcgUmVwbywgd3d3LnN2Z3JlcG8uY29tLCBHZW5lcmF0b3I6IFNWRyBSZXBvIE1peGVyIFRvb2xzIC0tPgo8c3ZnIHdpZHRoPSI4MDBweCIgaGVpZ2h0PSI4MDBweCIgdmlld0JveD0iLTAuNSAwIDI1NyAyNTciIHhtbG5zPSJodHRwOi8vd3d3LnczLm9yZy8yMDAwL3N2ZyIgcHJlc2VydmVBc3BlY3RSYXRpbz0ieE1pZFlNaWQiPjxwYXRoIGQ9Ik0wIDM2LjM1N0wxMDQuNjIgMjIuMTFsLjA0NSAxMDAuOTE0LTEwNC41Ny41OTVMMCAzNi4zNTh6bTEwNC41NyA5OC4yOTNsLjA4IDEwMS4wMDJMLjA4MSAyMjEuMjc1bC0uMDA2LTg3LjMwMiAxMDQuNDk0LjY3N3ptMTIuNjgyLTExNC40MDVMMjU1Ljk2OCAwdjEyMS43NGwtMTM4LjcxNiAxLjFWMjAuMjQ2ek0yNTYgMTM1LjZsLS4wMzMgMTIxLjE5MS0xMzguNzE2LTE5LjU3OC0uMTk0LTEwMS44NEwyNTYgMTM1LjZ6IiBmaWxsPSIjMDBBREVGIi8+PC9zdmc+;fontFamily=Helvetica;fontSize=12;fontColor=#000000;labelPosition=center;spacingBottom=-35;align=center;verticalAlign=bottom;horizontal=1;" vertex="1" parent="2089998134656">
  <mxGeometry x="450" y="150" width="100" height="50" as="geometry" />
</mxCell>
        <mxCell id="2089998136816" value="10.0.10.16" style="whiteSpace=wrap;rounded=0;dashed=0;shape=image;image=data:image/svg+xml,PD94bWwgdmVyc2lvbj0iMS4wIiBlbmNvZGluZz0idXRmLTgiPz48IS0tIFVwbG9hZGVkIHRvOiBTVkcgUmVwbywgd3d3LnN2Z3JlcG8uY29tLCBHZW5lcmF0b3I6IFNWRyBSZXBvIE1peGVyIFRvb2xzIC0tPgo8c3ZnIHdpZHRoPSI4MDBweCIgaGVpZ2h0PSI4MDBweCIgdmlld0JveD0iLTAuNSAwIDI1NyAyNTciIHhtbG5zPSJodHRwOi8vd3d3LnczLm9yZy8yMDAwL3N2ZyIgcHJlc2VydmVBc3BlY3RSYXRpbz0ieE1pZFlNaWQiPjxwYXRoIGQ9Ik0wIDM2LjM1N0wxMDQuNjIgMjIuMTFsLjA0NSAxMDAuOTE0LTEwNC41Ny41OTVMMCAzNi4zNTh6bTEwNC41NyA5OC4yOTNsLjA4IDEwMS4wMDJMLjA4MSAyMjEuMjc1bC0uMDA2LTg3LjMwMiAxMDQuNDk0LjY3N3ptMTIuNjgyLTExNC40MDVMMjU1Ljk2OCAwdjEyMS43NGwtMTM4LjcxNiAxLjFWMjAuMjQ2ek0yNTYgMTM1LjZsLS4wMzMgMTIxLjE5MS0xMzguNzE2LTE5LjU3OC0uMTk0LTEwMS44NEwyNTYgMTM1LjZ6IiBmaWxsPSIjMDBBREVGIi8+PC9zdmc+;fontFamily=Helvetica;fontSize=12;fontColor=#000000;labelPosition=center;spacingBottom=-35;align=center;verticalAlign=bottom;horizontal=1;" vertex="1" parent="2089998134656">
  <mxGeometry x="450" y="250" width="100" height="50" as="geometry" />
</mxCell>
        <mxCell id="2089998134656" value="Main Subnet" style="whiteSpace=wrap;rounded=0;fillColor=#E6F6F7;strokeColor=#00A4A6;dashed=0;fontSize=12;fontStyle=0;shape=mxgraph.aws4.group;grIcon=mxgraph.aws4.group_security_group;grStroke=0;verticalAlign=top;align=left;spacingLeft=30;fontColor=#147EBA;" vertex="1" parent="1">
  <mxGeometry x="0" y="0" width="600" height="450" as="geometry" />
</mxCell>
      </root>
    </mxGraphModel>
  </diagram>
</mxfile>